<?xml version="1.0" encoding="UTF-8" standalone="no"?>
<!DOCTYPE svg PUBLIC "-//W3C//DTD SVG 1.1//EN"
 "http://www.w3.org/Graphics/SVG/1.1/DTD/svg11.dtd">
<!-- Generated by graphviz version 2.40.1 (20161225.0304)
 -->
<!-- Title: dependency&#45;cruiser output Pages: 1 -->
<svg width="361pt" height="578pt"
 viewBox="0.00 0.00 361.07 578.06" xmlns="http://www.w3.org/2000/svg" xmlns:xlink="http://www.w3.org/1999/xlink">
<g id="graph0" class="graph" transform="scale(1 1) rotate(0) translate(4 574.0593)">
<title>dependency&#45;cruiser output</title>
<polygon fill="#ffffff" stroke="transparent" points="-4,4 -4,-574.0593 357.0652,-574.0593 357.0652,4 -4,4"/>
<g id="clust1" class="cluster">
<title>cluster_/src</title>
<path fill="none" stroke="#000000" stroke-width="2" d="M20,-129.0593C20,-129.0593 333.0652,-129.0593 333.0652,-129.0593 339.0652,-129.0593 345.0652,-135.0593 345.0652,-141.0593 345.0652,-141.0593 345.0652,-550.0593 345.0652,-550.0593 345.0652,-556.0593 339.0652,-562.0593 333.0652,-562.0593 333.0652,-562.0593 20,-562.0593 20,-562.0593 14,-562.0593 8,-556.0593 8,-550.0593 8,-550.0593 8,-141.0593 8,-141.0593 8,-135.0593 14,-129.0593 20,-129.0593"/>
<text text-anchor="middle" x="176.5326" y="-550.8593" font-family="Helvetica,sans-Serif" font-weight="bold" font-size="9.00" fill="#000000">src</text>
</g>
<g id="clust2" class="cluster">
<title>cluster_/src/global&#45;config</title>
<path fill="none" stroke="#000000" stroke-width="2" d="M196.5522,-457.0593C196.5522,-457.0593 325.0652,-457.0593 325.0652,-457.0593 331.0652,-457.0593 337.0652,-463.0593 337.0652,-469.0593 337.0652,-469.0593 337.0652,-525.0593 337.0652,-525.0593 337.0652,-531.0593 331.0652,-537.0593 325.0652,-537.0593 325.0652,-537.0593 196.5522,-537.0593 196.5522,-537.0593 190.5522,-537.0593 184.5522,-531.0593 184.5522,-525.0593 184.5522,-525.0593 184.5522,-469.0593 184.5522,-469.0593 184.5522,-463.0593 190.5522,-457.0593 196.5522,-457.0593"/>
<text text-anchor="middle" x="260.8087" y="-525.8593" font-family="Helvetica,sans-Serif" font-weight="bold" font-size="9.00" fill="#000000">global&#45;config</text>
</g>
<g id="clust3" class="cluster">
<title>cluster_/src/state</title>
<path fill="none" stroke="#000000" stroke-width="2" d="M105.519,-137.0593C105.519,-137.0593 151.519,-137.0593 151.519,-137.0593 157.519,-137.0593 163.519,-143.0593 163.519,-149.0593 163.519,-149.0593 163.519,-176.0593 163.519,-176.0593 163.519,-182.0593 157.519,-188.0593 151.519,-188.0593 151.519,-188.0593 105.519,-188.0593 105.519,-188.0593 99.519,-188.0593 93.519,-182.0593 93.519,-176.0593 93.519,-176.0593 93.519,-149.0593 93.519,-149.0593 93.519,-143.0593 99.519,-137.0593 105.519,-137.0593"/>
<text text-anchor="middle" x="128.519" y="-176.8593" font-family="Helvetica,sans-Serif" font-weight="bold" font-size="9.00" fill="#000000">state</text>
</g>
<g id="clust4" class="cluster">
<title>cluster_/src/utils</title>
<path fill="none" stroke="#000000" stroke-width="2" d="M90,-196.0593C90,-196.0593 255.0652,-196.0593 255.0652,-196.0593 261.0652,-196.0593 267.0652,-202.0593 267.0652,-208.0593 267.0652,-208.0593 267.0652,-437.0593 267.0652,-437.0593 267.0652,-443.0593 261.0652,-449.0593 255.0652,-449.0593 255.0652,-449.0593 90,-449.0593 90,-449.0593 84,-449.0593 78,-443.0593 78,-437.0593 78,-437.0593 78,-208.0593 78,-208.0593 78,-202.0593 84,-196.0593 90,-196.0593"/>
<text text-anchor="middle" x="172.5326" y="-437.8593" font-family="Helvetica,sans-Serif" font-weight="bold" font-size="9.00" fill="#000000">utils</text>
</g>
<g id="clust5" class="cluster">
<title>cluster_/src/utils/find&#45;root</title>
<path fill="none" stroke="#000000" stroke-width="2" d="M100.7578,-373.0593C100.7578,-373.0593 242.5522,-373.0593 242.5522,-373.0593 248.5522,-373.0593 254.5522,-379.0593 254.5522,-385.0593 254.5522,-385.0593 254.5522,-412.0593 254.5522,-412.0593 254.5522,-418.0593 248.5522,-424.0593 242.5522,-424.0593 242.5522,-424.0593 100.7578,-424.0593 100.7578,-424.0593 94.7578,-424.0593 88.7578,-418.0593 88.7578,-412.0593 88.7578,-412.0593 88.7578,-385.0593 88.7578,-385.0593 88.7578,-379.0593 94.7578,-373.0593 100.7578,-373.0593"/>
<text text-anchor="middle" x="171.655" y="-412.8593" font-family="Helvetica,sans-Serif" font-weight="bold" font-size="9.00" fill="#000000">find&#45;root</text>
</g>
<g id="clust6" class="cluster">
<title>cluster_/src/utils/telemetry</title>
<path fill="none" stroke="#000000" stroke-width="2" d="M105.0095,-259.0593C105.0095,-259.0593 247.0652,-259.0593 247.0652,-259.0593 253.0652,-259.0593 259.0652,-265.0593 259.0652,-271.0593 259.0652,-271.0593 259.0652,-327.0593 259.0652,-327.0593 259.0652,-333.0593 253.0652,-339.0593 247.0652,-339.0593 247.0652,-339.0593 105.0095,-339.0593 105.0095,-339.0593 99.0095,-339.0593 93.0095,-333.0593 93.0095,-327.0593 93.0095,-327.0593 93.0095,-271.0593 93.0095,-271.0593 93.0095,-265.0593 99.0095,-259.0593 105.0095,-259.0593"/>
<text text-anchor="middle" x="176.0374" y="-327.8593" font-family="Helvetica,sans-Serif" font-weight="bold" font-size="9.00" fill="#000000">telemetry</text>
</g>
<!-- child_process -->
<g id="node1" class="node">
<title>child_process</title>
<path fill="#ffffcc" stroke="#c0c0c0" d="M249.4139,-120.5593C249.4139,-120.5593 189.6906,-120.5593 189.6906,-120.5593 186.8573,-120.5593 184.0239,-117.7259 184.0239,-114.8926 184.0239,-114.8926 184.0239,-109.2259 184.0239,-109.2259 184.0239,-106.3926 186.8573,-103.5593 189.6906,-103.5593 189.6906,-103.5593 249.4139,-103.5593 249.4139,-103.5593 252.2472,-103.5593 255.0806,-106.3926 255.0806,-109.2259 255.0806,-109.2259 255.0806,-114.8926 255.0806,-114.8926 255.0806,-117.7259 252.2472,-120.5593 249.4139,-120.5593"/>
<text text-anchor="middle" x="219.5522" y="-109.3593" font-family="Helvetica,sans-Serif" font-size="9.00" fill="#c0c0c0">child_process</text>
</g>
<!-- fs -->
<g id="node2" class="node">
<title>fs</title>
<path fill="#ffffcc" stroke="#c0c0c0" d="M240.8856,-38.5593C240.8856,-38.5593 198.2189,-38.5593 198.2189,-38.5593 195.3856,-38.5593 192.5522,-35.7259 192.5522,-32.8926 192.5522,-32.8926 192.5522,-27.2259 192.5522,-27.2259 192.5522,-24.3926 195.3856,-21.5593 198.2189,-21.5593 198.2189,-21.5593 240.8856,-21.5593 240.8856,-21.5593 243.7189,-21.5593 246.5522,-24.3926 246.5522,-27.2259 246.5522,-27.2259 246.5522,-32.8926 246.5522,-32.8926 246.5522,-35.7259 243.7189,-38.5593 240.8856,-38.5593"/>
<text text-anchor="middle" x="219.5522" y="-27.3593" font-family="Helvetica,sans-Serif" font-size="9.00" fill="#c0c0c0">fs</text>
</g>
<!-- os -->
<g id="node3" class="node">
<title>os</title>
<path fill="#ffffcc" stroke="#c0c0c0" d="M323.3985,-120.5593C323.3985,-120.5593 280.7319,-120.5593 280.7319,-120.5593 277.8985,-120.5593 275.0652,-117.7259 275.0652,-114.8926 275.0652,-114.8926 275.0652,-109.2259 275.0652,-109.2259 275.0652,-106.3926 277.8985,-103.5593 280.7319,-103.5593 280.7319,-103.5593 323.3985,-103.5593 323.3985,-103.5593 326.2319,-103.5593 329.0652,-106.3926 329.0652,-109.2259 329.0652,-109.2259 329.0652,-114.8926 329.0652,-114.8926 329.0652,-117.7259 326.2319,-120.5593 323.3985,-120.5593"/>
<text text-anchor="middle" x="302.0652" y="-109.3593" font-family="Helvetica,sans-Serif" font-size="9.00" fill="#c0c0c0">os</text>
</g>
<!-- path -->
<g id="node4" class="node">
<title>path</title>
<path fill="#ffffcc" stroke="#c0c0c0" d="M323.3985,-91.5593C323.3985,-91.5593 280.7319,-91.5593 280.7319,-91.5593 277.8985,-91.5593 275.0652,-88.7259 275.0652,-85.8926 275.0652,-85.8926 275.0652,-80.2259 275.0652,-80.2259 275.0652,-77.3926 277.8985,-74.5593 280.7319,-74.5593 280.7319,-74.5593 323.3985,-74.5593 323.3985,-74.5593 326.2319,-74.5593 329.0652,-77.3926 329.0652,-80.2259 329.0652,-80.2259 329.0652,-85.8926 329.0652,-85.8926 329.0652,-88.7259 326.2319,-91.5593 323.3985,-91.5593"/>
<text text-anchor="middle" x="302.0652" y="-80.3593" font-family="Helvetica,sans-Serif" font-size="9.00" fill="#c0c0c0">path</text>
</g>
<!-- src/global&#45;config/index.js -->
<g id="node5" class="node">
<title>src/global&#45;config/index.js</title>
<g id="a_node5"><a xlink:href="src/global-config/index.js" xlink:title="index.js">
<path fill="#ffffcc" stroke="#000000" d="M240.8856,-482.5593C240.8856,-482.5593 198.2189,-482.5593 198.2189,-482.5593 195.3856,-482.5593 192.5522,-479.7259 192.5522,-476.8926 192.5522,-476.8926 192.5522,-471.2259 192.5522,-471.2259 192.5522,-468.3926 195.3856,-465.5593 198.2189,-465.5593 198.2189,-465.5593 240.8856,-465.5593 240.8856,-465.5593 243.7189,-465.5593 246.5522,-468.3926 246.5522,-471.2259 246.5522,-471.2259 246.5522,-476.8926 246.5522,-476.8926 246.5522,-479.7259 243.7189,-482.5593 240.8856,-482.5593"/>
<text text-anchor="middle" x="219.5522" y="-471.3593" font-family="Helvetica,sans-Serif" font-size="9.00" fill="#000000">index.js</text>
</a>
</g>
</g>
<!-- src/global&#45;config/index.js&#45;&gt;os -->
<g id="edge1" class="edge">
<title>src/global&#45;config/index.js&#45;&gt;os</title>
<path fill="none" stroke="#c0c0c0" d="M232.4628,-465.2809C243.6685,-456.8841 259.2812,-443.1429 267.0652,-427.0593 292.6272,-374.2418 299.89,-190.7887 301.602,-131.0338"/>
<polygon fill="#c0c0c0" stroke="#c0c0c0" points="305.1068,-130.8971 301.8742,-120.8075 298.1093,-130.7108 305.1068,-130.8971"/>
</g>
<!-- src/global&#45;config/index.js&#45;&gt;path -->
<g id="edge2" class="edge">
<title>src/global&#45;config/index.js&#45;&gt;path</title>
<path fill="none" stroke="#c0c0c0" d="M232.7971,-465.4339C244.2279,-457.1401 259.9832,-443.4641 267.0652,-427.0593 280.6935,-395.4902 258.722,-160.4146 275.7652,-101.2762"/>
<polygon fill="#c0c0c0" stroke="#c0c0c0" points="279.0555,-102.481 279.7161,-91.9067 272.6055,-99.7611 279.0555,-102.481"/>
</g>
<!-- src/global&#45;config/util.js -->
<g id="node6" class="node">
<title>src/global&#45;config/util.js</title>
<g id="a_node6"><a xlink:href="src/global-config/util.js" xlink:title="util.js">
<path fill="#ffffcc" stroke="#000000" d="M323.3985,-511.5593C323.3985,-511.5593 280.7319,-511.5593 280.7319,-511.5593 277.8985,-511.5593 275.0652,-508.7259 275.0652,-505.8926 275.0652,-505.8926 275.0652,-500.2259 275.0652,-500.2259 275.0652,-497.3926 277.8985,-494.5593 280.7319,-494.5593 280.7319,-494.5593 323.3985,-494.5593 323.3985,-494.5593 326.2319,-494.5593 329.0652,-497.3926 329.0652,-500.2259 329.0652,-500.2259 329.0652,-505.8926 329.0652,-505.8926 329.0652,-508.7259 326.2319,-511.5593 323.3985,-511.5593"/>
<text text-anchor="middle" x="302.0652" y="-500.3593" font-family="Helvetica,sans-Serif" font-size="9.00" fill="#000000">util.js</text>
</a>
</g>
</g>
<!-- src/global&#45;config/util.test.js -->
<g id="node7" class="node">
<title>src/global&#45;config/util.test.js</title>
<g id="a_node7"><a xlink:href="src/global-config/util.test.js" xlink:title="util.test.js">
<path fill="#ffffcc" stroke="#000000" d="M240.8856,-511.5593C240.8856,-511.5593 198.2189,-511.5593 198.2189,-511.5593 195.3856,-511.5593 192.5522,-508.7259 192.5522,-505.8926 192.5522,-505.8926 192.5522,-500.2259 192.5522,-500.2259 192.5522,-497.3926 195.3856,-494.5593 198.2189,-494.5593 198.2189,-494.5593 240.8856,-494.5593 240.8856,-494.5593 243.7189,-494.5593 246.5522,-497.3926 246.5522,-500.2259 246.5522,-500.2259 246.5522,-505.8926 246.5522,-505.8926 246.5522,-508.7259 243.7189,-511.5593 240.8856,-511.5593"/>
<text text-anchor="middle" x="219.5522" y="-500.3593" font-family="Helvetica,sans-Serif" font-size="9.00" fill="#000000">util.test.js</text>
</a>
</g>
</g>
<!-- src/global&#45;config/util.test.js&#45;&gt;src/global&#45;config/util.js -->
<g id="edge3" class="edge">
<title>src/global&#45;config/util.test.js&#45;&gt;src/global&#45;config/util.js</title>
<path fill="none" stroke="#000000" d="M246.5701,-503.0593C252.4113,-503.0593 258.6867,-503.0593 264.8412,-503.0593"/>
<polygon fill="#000000" stroke="#000000" points="264.9867,-506.5594 274.9867,-503.0593 264.9866,-499.5594 264.9867,-506.5594"/>
</g>
<!-- src/index.js -->
<g id="node8" class="node">
<title>src/index.js</title>
<g id="a_node8"><a xlink:href="src/index.js" xlink:title="index.js">
<path fill="#ffffcc" stroke="#000000" d="M64.3333,-313.5593C64.3333,-313.5593 21.6667,-313.5593 21.6667,-313.5593 18.8333,-313.5593 16,-310.7259 16,-307.8926 16,-307.8926 16,-302.2259 16,-302.2259 16,-299.3926 18.8333,-296.5593 21.6667,-296.5593 21.6667,-296.5593 64.3333,-296.5593 64.3333,-296.5593 67.1667,-296.5593 70,-299.3926 70,-302.2259 70,-302.2259 70,-307.8926 70,-307.8926 70,-310.7259 67.1667,-313.5593 64.3333,-313.5593"/>
<text text-anchor="middle" x="43" y="-302.3593" font-family="Helvetica,sans-Serif" font-size="9.00" fill="#000000">index.js</text>
</a>
</g>
</g>
<!-- src/index.js&#45;&gt;src/global&#45;config/index.js -->
<g id="edge4" class="edge">
<title>src/index.js&#45;&gt;src/global&#45;config/index.js</title>
<path fill="none" stroke="#000000" d="M44.4324,-313.8439C48.691,-338.9647 61.9803,-410.3657 78,-427.0593 105.3032,-455.5111 150.2131,-466.7446 182.121,-471.1768"/>
<polygon fill="#000000" stroke="#000000" points="182.0482,-474.6939 192.3992,-472.4342 182.8983,-467.7457 182.0482,-474.6939"/>
</g>
<!-- src/state/index.js -->
<g id="node9" class="node">
<title>src/state/index.js</title>
<g id="a_node9"><a xlink:href="src/state/index.js" xlink:title="index.js">
<path fill="#ffffcc" stroke="#000000" d="M149.8524,-162.5593C149.8524,-162.5593 107.1857,-162.5593 107.1857,-162.5593 104.3524,-162.5593 101.519,-159.7259 101.519,-156.8926 101.519,-156.8926 101.519,-151.2259 101.519,-151.2259 101.519,-148.3926 104.3524,-145.5593 107.1857,-145.5593 107.1857,-145.5593 149.8524,-145.5593 149.8524,-145.5593 152.6857,-145.5593 155.519,-148.3926 155.519,-151.2259 155.519,-151.2259 155.519,-156.8926 155.519,-156.8926 155.519,-159.7259 152.6857,-162.5593 149.8524,-162.5593"/>
<text text-anchor="middle" x="128.519" y="-151.3593" font-family="Helvetica,sans-Serif" font-size="9.00" fill="#000000">index.js</text>
</a>
</g>
</g>
<!-- src/index.js&#45;&gt;src/state/index.js -->
<g id="edge5" class="edge">
<title>src/index.js&#45;&gt;src/state/index.js</title>
<path fill="none" stroke="#000000" d="M43.9129,-296.4251C46.3712,-276.5441 54.6055,-226.6654 78,-193.0593 84.8121,-183.2736 94.8237,-174.8237 104.1413,-168.3157"/>
<polygon fill="#000000" stroke="#000000" points="106.2847,-171.0958 112.7349,-162.6907 102.451,-165.2389 106.2847,-171.0958"/>
</g>
<!-- src/utils/find&#45;root/index.js -->
<g id="node10" class="node">
<title>src/utils/find&#45;root/index.js</title>
<g id="a_node10"><a xlink:href="src/utils/find-root/index.js" xlink:title="index.js">
<path fill="#ffffcc" stroke="#000000" d="M240.8856,-398.5593C240.8856,-398.5593 198.2189,-398.5593 198.2189,-398.5593 195.3856,-398.5593 192.5522,-395.7259 192.5522,-392.8926 192.5522,-392.8926 192.5522,-387.2259 192.5522,-387.2259 192.5522,-384.3926 195.3856,-381.5593 198.2189,-381.5593 198.2189,-381.5593 240.8856,-381.5593 240.8856,-381.5593 243.7189,-381.5593 246.5522,-384.3926 246.5522,-387.2259 246.5522,-387.2259 246.5522,-392.8926 246.5522,-392.8926 246.5522,-395.7259 243.7189,-398.5593 240.8856,-398.5593"/>
<text text-anchor="middle" x="219.5522" y="-387.3593" font-family="Helvetica,sans-Serif" font-size="9.00" fill="#000000">index.js</text>
</a>
</g>
</g>
<!-- src/index.js&#45;&gt;src/utils/find&#45;root/index.js -->
<g id="edge6" class="edge">
<title>src/index.js&#45;&gt;src/utils/find&#45;root/index.js</title>
<path fill="none" stroke="#000000" d="M44.7156,-313.7587C49.3009,-336.0248 62.5483,-394.0966 78,-405.0593 111.8623,-429.0839 162.2454,-415.1142 192.8801,-402.6725"/>
<polygon fill="#000000" stroke="#000000" points="194.6459,-405.7238 202.4598,-398.5688 191.8895,-399.2893 194.6459,-405.7238"/>
</g>
<!-- src/utils/get&#45;config&#45;path.js -->
<g id="node12" class="node">
<title>src/utils/get&#45;config&#45;path.js</title>
<g id="a_node12"><a xlink:href="src/utils/get-config-path.js" xlink:title="get&#45;config&#45;path.js">
<path fill="#ffffcc" stroke="#000000" d="M165.3905,-250.5593C165.3905,-250.5593 91.6476,-250.5593 91.6476,-250.5593 88.8143,-250.5593 85.9809,-247.7259 85.9809,-244.8926 85.9809,-244.8926 85.9809,-239.2259 85.9809,-239.2259 85.9809,-236.3926 88.8143,-233.5593 91.6476,-233.5593 91.6476,-233.5593 165.3905,-233.5593 165.3905,-233.5593 168.2238,-233.5593 171.0571,-236.3926 171.0571,-239.2259 171.0571,-239.2259 171.0571,-244.8926 171.0571,-244.8926 171.0571,-247.7259 168.2238,-250.5593 165.3905,-250.5593"/>
<text text-anchor="middle" x="128.519" y="-239.3593" font-family="Helvetica,sans-Serif" font-size="9.00" fill="#000000">get&#45;config&#45;path.js</text>
</a>
</g>
</g>
<!-- src/index.js&#45;&gt;src/utils/get&#45;config&#45;path.js -->
<g id="edge7" class="edge">
<title>src/index.js&#45;&gt;src/utils/get&#45;config&#45;path.js</title>
<path fill="none" stroke="#000000" d="M46.8847,-296.4072C52.2823,-285.376 63.0949,-266.4865 78,-256.0593 78.2866,-255.8587 78.5761,-255.6611 78.8681,-255.4662"/>
<polygon fill="#000000" stroke="#000000" points="80.8031,-258.3992 87.9422,-250.5708 77.4795,-252.2386 80.8031,-258.3992"/>
</g>
<!-- src/utils/open&#45;browser.js -->
<g id="node13" class="node">
<title>src/utils/open&#45;browser.js</title>
<g id="a_node13"><a xlink:href="src/utils/open-browser.js" xlink:title="open&#45;browser.js">
<path fill="#ffffcc" stroke="#000000" d="M162.3899,-364.5593C162.3899,-364.5593 94.6482,-364.5593 94.6482,-364.5593 91.8149,-364.5593 88.9816,-361.7259 88.9816,-358.8926 88.9816,-358.8926 88.9816,-353.2259 88.9816,-353.2259 88.9816,-350.3926 91.8149,-347.5593 94.6482,-347.5593 94.6482,-347.5593 162.3899,-347.5593 162.3899,-347.5593 165.2232,-347.5593 168.0565,-350.3926 168.0565,-353.2259 168.0565,-353.2259 168.0565,-358.8926 168.0565,-358.8926 168.0565,-361.7259 165.2232,-364.5593 162.3899,-364.5593"/>
<text text-anchor="middle" x="128.519" y="-353.3593" font-family="Helvetica,sans-Serif" font-size="9.00" fill="#000000">open&#45;browser.js</text>
</a>
</g>
</g>
<!-- src/index.js&#45;&gt;src/utils/open&#45;browser.js -->
<g id="edge8" class="edge">
<title>src/index.js&#45;&gt;src/utils/open&#45;browser.js</title>
<path fill="none" stroke="#000000" d="M48.9604,-313.6887C55.2368,-322.1348 65.8783,-334.7642 78,-342.0593 78.658,-342.4552 79.3274,-342.8403 80.0069,-343.2148"/>
<polygon fill="#000000" stroke="#000000" points="78.7405,-346.4853 89.2857,-347.5089 81.6804,-340.1326 78.7405,-346.4853"/>
</g>
<!-- src/utils/read&#45;config.js -->
<g id="node14" class="node">
<title>src/utils/read&#45;config.js</title>
<g id="a_node14"><a xlink:href="src/utils/read-config.js" xlink:title="read&#45;config.js">
<path fill="#ffffcc" stroke="#000000" d="M157.8787,-221.5593C157.8787,-221.5593 99.1593,-221.5593 99.1593,-221.5593 96.326,-221.5593 93.4927,-218.7259 93.4927,-215.8926 93.4927,-215.8926 93.4927,-210.2259 93.4927,-210.2259 93.4927,-207.3926 96.326,-204.5593 99.1593,-204.5593 99.1593,-204.5593 157.8787,-204.5593 157.8787,-204.5593 160.7121,-204.5593 163.5454,-207.3926 163.5454,-210.2259 163.5454,-210.2259 163.5454,-215.8926 163.5454,-215.8926 163.5454,-218.7259 160.7121,-221.5593 157.8787,-221.5593"/>
<text text-anchor="middle" x="128.519" y="-210.3593" font-family="Helvetica,sans-Serif" font-size="9.00" fill="#000000">read&#45;config.js</text>
</a>
</g>
</g>
<!-- src/index.js&#45;&gt;src/utils/read&#45;config.js -->
<g id="edge9" class="edge">
<title>src/index.js&#45;&gt;src/utils/read&#45;config.js</title>
<path fill="none" stroke="#000000" d="M44.4819,-296.4994C47.681,-280.6288 56.7369,-246.5733 78,-228.0593 79.932,-226.377 82.0458,-224.8833 84.2783,-223.5571"/>
<polygon fill="#000000" stroke="#000000" points="85.8301,-226.6947 93.3456,-219.2269 82.8135,-220.378 85.8301,-226.6947"/>
</g>
<!-- src/utils/telemetry/index.js -->
<g id="node15" class="node">
<title>src/utils/telemetry/index.js</title>
<g id="a_node15"><a xlink:href="src/utils/telemetry/index.js" xlink:title="index.js">
<path fill="#ffffcc" stroke="#000000" d="M149.8524,-313.5593C149.8524,-313.5593 107.1857,-313.5593 107.1857,-313.5593 104.3524,-313.5593 101.519,-310.7259 101.519,-307.8926 101.519,-307.8926 101.519,-302.2259 101.519,-302.2259 101.519,-299.3926 104.3524,-296.5593 107.1857,-296.5593 107.1857,-296.5593 149.8524,-296.5593 149.8524,-296.5593 152.6857,-296.5593 155.519,-299.3926 155.519,-302.2259 155.519,-302.2259 155.519,-307.8926 155.519,-307.8926 155.519,-310.7259 152.6857,-313.5593 149.8524,-313.5593"/>
<text text-anchor="middle" x="128.519" y="-302.3593" font-family="Helvetica,sans-Serif" font-size="9.00" fill="#000000">index.js</text>
</a>
</g>
</g>
<!-- src/index.js&#45;&gt;src/utils/telemetry/index.js -->
<g id="edge10" class="edge">
<title>src/index.js&#45;&gt;src/utils/telemetry/index.js</title>
<path fill="none" stroke="#000000" d="M70.0588,-305.0593C76.7658,-305.0593 84.0714,-305.0593 91.1744,-305.0593"/>
<polygon fill="#000000" stroke="#000000" points="91.3428,-308.5594 101.3428,-305.0593 91.3427,-301.5594 91.3428,-308.5594"/>
</g>
<!-- src/state/index.js&#45;&gt;fs -->
<g id="edge11" class="edge">
<title>src/state/index.js&#45;&gt;fs</title>
<path fill="none" stroke="#c0c0c0" d="M130.99,-145.5446C137.0407,-126.007 154.3153,-77.3872 184.0381,-48.0593 185.4773,-46.6392 187.0512,-45.3086 188.7104,-44.0657"/>
<polygon fill="#c0c0c0" stroke="#c0c0c0" points="190.8671,-46.8448 197.4862,-38.572 187.1529,-40.9115 190.8671,-46.8448"/>
</g>
<!-- src/state/index.js&#45;&gt;path -->
<g id="edge12" class="edge">
<title>src/state/index.js&#45;&gt;path</title>
<path fill="none" stroke="#c0c0c0" d="M128.8544,-145.5348C130.3628,-120.2978 138.6431,-45.8098 184.0381,-15.0593 214.5893,5.6361 235.5625,4.1568 267.0652,-15.0593 284.5639,-25.7332 293.6857,-48.2614 298.1703,-64.4655"/>
<polygon fill="#c0c0c0" stroke="#c0c0c0" points="294.8315,-65.5503 300.5801,-74.45 301.6361,-63.9079 294.8315,-65.5503"/>
</g>
<!-- src/utils/find&#45;root/index.js&#45;&gt;os -->
<g id="edge13" class="edge">
<title>src/utils/find&#45;root/index.js&#45;&gt;os</title>
<path fill="none" stroke="#c0c0c0" d="M231.8783,-381.2904C243.0053,-372.6524 258.852,-358.4034 267.0652,-342.0593 285.7017,-304.9728 296.973,-179.1925 300.6933,-131.0331"/>
<polygon fill="#c0c0c0" stroke="#c0c0c0" points="304.1855,-131.2663 301.4423,-121.0328 297.2051,-130.7434 304.1855,-131.2663"/>
</g>
<!-- src/utils/find&#45;root/index.js&#45;&gt;path -->
<g id="edge14" class="edge">
<title>src/utils/find&#45;root/index.js&#45;&gt;path</title>
<path fill="none" stroke="#c0c0c0" d="M232.3274,-381.4997C243.7718,-373.0095 259.8332,-358.8606 267.0652,-342.0593 276.9925,-318.9962 263.0698,-149.8218 275.8718,-101.4501"/>
<polygon fill="#c0c0c0" stroke="#c0c0c0" points="279.2227,-102.5 279.7331,-91.9174 272.7348,-99.8719 279.2227,-102.5"/>
</g>
<!-- src/utils/find&#45;root/index.test.js -->
<g id="node11" class="node">
<title>src/utils/find&#45;root/index.test.js</title>
<g id="a_node11"><a xlink:href="src/utils/find-root/index.test.js" xlink:title="index.test.js">
<path fill="#ffffcc" stroke="#000000" d="M154.3766,-398.5593C154.3766,-398.5593 102.6615,-398.5593 102.6615,-398.5593 99.8281,-398.5593 96.9948,-395.7259 96.9948,-392.8926 96.9948,-392.8926 96.9948,-387.2259 96.9948,-387.2259 96.9948,-384.3926 99.8281,-381.5593 102.6615,-381.5593 102.6615,-381.5593 154.3766,-381.5593 154.3766,-381.5593 157.21,-381.5593 160.0433,-384.3926 160.0433,-387.2259 160.0433,-387.2259 160.0433,-392.8926 160.0433,-392.8926 160.0433,-395.7259 157.21,-398.5593 154.3766,-398.5593"/>
<text text-anchor="middle" x="128.519" y="-387.3593" font-family="Helvetica,sans-Serif" font-size="9.00" fill="#000000">index.test.js</text>
</a>
</g>
</g>
<!-- src/utils/find&#45;root/index.test.js&#45;&gt;path -->
<g id="edge16" class="edge">
<title>src/utils/find&#45;root/index.test.js&#45;&gt;path</title>
<path fill="none" stroke="#c0c0c0" d="M160.3305,-385.7295C164.4174,-383.9344 168.169,-381.4591 171.0381,-378.0593 188.622,-357.2227 174.971,-281.772 184.0381,-256.0593 206.7127,-191.758 239.4975,-189.4196 267.0652,-127.0593 271.5984,-116.8047 268.343,-110.5124 274.7606,-99.8494"/>
<polygon fill="#c0c0c0" stroke="#c0c0c0" points="277.7118,-101.7502 280.9637,-91.6667 272.1334,-97.5214 277.7118,-101.7502"/>
</g>
<!-- src/utils/find&#45;root/index.test.js&#45;&gt;src/utils/find&#45;root/index.js -->
<g id="edge15" class="edge">
<title>src/utils/find&#45;root/index.test.js&#45;&gt;src/utils/find&#45;root/index.js</title>
<path fill="none" stroke="#000000" d="M160.1026,-390.0593C167.2229,-390.0593 174.8467,-390.0593 182.1791,-390.0593"/>
<polygon fill="#000000" stroke="#000000" points="182.2682,-393.5594 192.2682,-390.0593 182.2682,-386.5594 182.2682,-393.5594"/>
</g>
<!-- src/utils/get&#45;config&#45;path.js&#45;&gt;fs -->
<g id="edge17" class="edge">
<title>src/utils/get&#45;config&#45;path.js&#45;&gt;fs</title>
<path fill="none" stroke="#c0c0c0" d="M165.321,-233.4351C167.4696,-231.9198 169.413,-230.1428 171.0381,-228.0593 195.7028,-196.4365 161.8293,-81.4526 184.0381,-48.0593 184.7702,-46.9585 185.5911,-45.9217 186.4835,-44.9455"/>
<polygon fill="#c0c0c0" stroke="#c0c0c0" points="188.808,-47.5683 194.4356,-38.5916 184.4384,-42.0996 188.808,-47.5683"/>
</g>
<!-- src/utils/get&#45;config&#45;path.js&#45;&gt;path -->
<g id="edge18" class="edge">
<title>src/utils/get&#45;config&#45;path.js&#45;&gt;path</title>
<path fill="none" stroke="#c0c0c0" d="M165.2926,-233.4128C167.4477,-231.9027 169.4004,-230.1329 171.0381,-228.0593 192.3238,-201.107 158.7525,-97.3003 184.0381,-74.0593 208.1871,-51.8629 248.103,-60.8427 274.7382,-70.7518"/>
<polygon fill="#c0c0c0" stroke="#c0c0c0" points="273.6501,-74.0857 284.2355,-74.532 276.2388,-67.582 273.6501,-74.0857"/>
</g>
<!-- src/utils/read&#45;config.js&#45;&gt;fs -->
<g id="edge19" class="edge">
<title>src/utils/read&#45;config.js&#45;&gt;fs</title>
<path fill="none" stroke="#c0c0c0" d="M155.0329,-204.4567C161.2253,-201.213 167.1423,-196.8528 171.0381,-191.0593 206.649,-138.1012 148.2056,-100.8677 184.0381,-48.0593 184.7804,-46.9653 185.6099,-45.9344 186.5096,-44.9631"/>
<polygon fill="#c0c0c0" stroke="#c0c0c0" points="188.8338,-47.587 194.4942,-38.6309 184.4842,-42.1024 188.8338,-47.587"/>
</g>
<!-- src/utils/telemetry/index.js&#45;&gt;child_process -->
<g id="edge22" class="edge">
<title>src/utils/telemetry/index.js&#45;&gt;child_process</title>
<path fill="none" stroke="#c0c0c0" d="M155.594,-301.1296C161.4726,-299.043 167.1012,-295.8713 171.0381,-291.0593 186.4848,-272.1791 176.9667,-205.4057 184.0381,-182.0593 189.7599,-163.1684 200.376,-143.2455 208.5162,-129.5059"/>
<polygon fill="#c0c0c0" stroke="#c0c0c0" points="211.6714,-131.055 213.9007,-120.6973 205.6989,-127.4041 211.6714,-131.055"/>
</g>
<!-- src/utils/telemetry/index.js&#45;&gt;path -->
<g id="edge23" class="edge">
<title>src/utils/telemetry/index.js&#45;&gt;path</title>
<path fill="none" stroke="#c0c0c0" d="M155.7726,-301.2719C161.6457,-299.1809 167.2271,-295.9716 171.0381,-291.0593 197.5231,-256.9204 154.2769,-128.3832 184.0381,-97.0593 204.2392,-75.7974 238.3911,-73.8294 264.7755,-76.2852"/>
<polygon fill="#c0c0c0" stroke="#c0c0c0" points="264.4818,-79.7747 274.8212,-77.4622 265.2965,-72.8222 264.4818,-79.7747"/>
</g>
<!-- src/utils/telemetry/index.js&#45;&gt;src/global&#45;config/index.js -->
<g id="edge20" class="edge">
<title>src/utils/telemetry/index.js&#45;&gt;src/global&#45;config/index.js</title>
<path fill="none" stroke="#000000" d="M155.5597,-308.3266C161.4393,-310.2758 167.0769,-313.3218 171.0381,-318.0593 186.6856,-336.7733 174.9243,-404.4318 184.0381,-427.0593 188.566,-438.3009 196.5115,-449.2059 203.7406,-457.6771"/>
<polygon fill="#000000" stroke="#000000" points="201.2817,-460.1766 210.5777,-465.2594 206.4803,-455.4889 201.2817,-460.1766"/>
</g>
<!-- src/utils/telemetry/validation.js -->
<g id="node17" class="node">
<title>src/utils/telemetry/validation.js</title>
<g id="a_node17"><a xlink:href="src/utils/telemetry/validation.js" xlink:title="validation.js">
<path fill="#ffffcc" stroke="#000000" d="M245.4115,-313.5593C245.4115,-313.5593 193.693,-313.5593 193.693,-313.5593 190.8597,-313.5593 188.0264,-310.7259 188.0264,-307.8926 188.0264,-307.8926 188.0264,-302.2259 188.0264,-302.2259 188.0264,-299.3926 190.8597,-296.5593 193.693,-296.5593 193.693,-296.5593 245.4115,-296.5593 245.4115,-296.5593 248.2448,-296.5593 251.0781,-299.3926 251.0781,-302.2259 251.0781,-302.2259 251.0781,-307.8926 251.0781,-307.8926 251.0781,-310.7259 248.2448,-313.5593 245.4115,-313.5593"/>
<text text-anchor="middle" x="219.5522" y="-302.3593" font-family="Helvetica,sans-Serif" font-size="9.00" fill="#000000">validation.js</text>
</a>
</g>
</g>
<!-- src/utils/telemetry/index.js&#45;&gt;src/utils/telemetry/validation.js -->
<g id="edge21" class="edge">
<title>src/utils/telemetry/index.js&#45;&gt;src/utils/telemetry/validation.js</title>
<path fill="none" stroke="#000000" d="M155.832,-305.0593C162.6665,-305.0593 170.1567,-305.0593 177.5242,-305.0593"/>
<polygon fill="#000000" stroke="#000000" points="177.7772,-308.5594 187.7772,-305.0593 177.7771,-301.5594 177.7772,-308.5594"/>
</g>
<!-- src/utils/telemetry/request.js -->
<g id="node16" class="node">
<title>src/utils/telemetry/request.js</title>
<g id="a_node16"><a xlink:href="src/utils/telemetry/request.js" xlink:title="request.js">
<path fill="#ffffcc" stroke="#000000" d="M150.3714,-284.5593C150.3714,-284.5593 106.6667,-284.5593 106.6667,-284.5593 103.8333,-284.5593 101,-281.7259 101,-278.8926 101,-278.8926 101,-273.2259 101,-273.2259 101,-270.3926 103.8333,-267.5593 106.6667,-267.5593 106.6667,-267.5593 150.3714,-267.5593 150.3714,-267.5593 153.2048,-267.5593 156.0381,-270.3926 156.0381,-273.2259 156.0381,-273.2259 156.0381,-278.8926 156.0381,-278.8926 156.0381,-281.7259 153.2048,-284.5593 150.3714,-284.5593"/>
<text text-anchor="middle" x="128.519" y="-273.3593" font-family="Helvetica,sans-Serif" font-size="9.00" fill="#000000">request.js</text>
</a>
</g>
</g>
</g>
</svg>
